<?xml version="1.0" standalone="no"?>
<!DOCTYPE svg PUBLIC "-//W3C//DTD SVG 20010904//EN"
 "http://www.w3.org/TR/2001/REC-SVG-20010904/DTD/svg10.dtd">
<svg version="1.0" xmlns="http://www.w3.org/2000/svg"
 width="512.000000pt" height="512.000000pt" viewBox="0 0 512.000000 512.000000"
 preserveAspectRatio="xMidYMid meet">
<metadata>
Created by potrace 1.11, written by Peter Selinger 2001-2013
</metadata>
<g transform="translate(0.000000,512.000000) scale(0.100000,-0.100000)"
fill="#000000" stroke="none">
<path d="M2370 5113 c-371 -35 -653 -114 -961 -269 -406 -203 -782 -548 -1029
-944 -179 -286 -309 -655 -362 -1025 -17 -118 -17 -512 0 -630 42 -295 120
-553 242 -800 137 -280 272 -468 494 -691 221 -220 412 -357 681 -489 188 -92
309 -137 500 -185 500 -126 1002 -102 1490 71 150 53 408 183 540 271 560 374
952 942 1095 1588 33 150 50 291 57 465 15 426 -73 832 -263 1214 -124 250
-263 447 -458 648 -214 222 -430 379 -711 518 -296 146 -572 225 -900 255
-102 9 -333 11 -415 3z m500 -398 c478 -72 883 -277 1226 -619 344 -344 547
-749 620 -1236 24 -156 24 -444 0 -600 -74 -497 -294 -925 -651 -1268 -411
-397 -931 -606 -1505 -606 -592 0 -1113 217 -1536 638 -419 418 -638 945 -638
1536 0 573 210 1094 605 1504 379 394 854 618 1419 670 84 8 355 -4 460 -19z"/>
<path d="M1973 3599 c-22 -11 -54 -39 -70 -61 l-28 -41 0 -937 0 -937 29 -41
c66 -96 223 -110 297 -26 48 55 49 61 49 448 l0 365 333 3 c315 4 335 5 397
27 146 51 281 164 355 295 69 124 95 314 60 451 -56 221 -239 404 -460 460
-48 12 -138 15 -490 15 -414 0 -432 -1 -472 -21z m891 -371 c55 -16 138 -99
154 -154 35 -119 -14 -239 -123 -297 -38 -21 -55 -22 -342 -25 l-303 -3 0 245
0 246 286 0 c196 0 300 -4 328 -12z"/>
</g>
</svg>
